# xmcd CD database file
#
# Track frame offsets:
#	150
#	23995
#	41061
#	59763
#	77501
#	95924
#	113127
#	137415
#	149365
#	165831
#	184292
#	199040
#	215374
#	231077
#	247391
#	266387
#	281169
#	293161
#	309518
#
# Disc length: 4336 seconds
#
# Revision: 0
# Processed by: cddbd v1.5.2PL0 Copyright (c) Steve Scherf et al.
# Submitted via: CDex 1.70beta2
#
DISCID=2010ee13
DTITLE=Various Artist - Na dobrą drogę 25 CD-1
DYEAR=2018
DGENRE=Country
TTITLE0=Panie władzo - Lonstar, Tomasz Szwed, Krzysztof Gabłonski
TTITLE1=Radio - Lonstar
TTITLE2=Poradnik początkującego kierowcy -Tomasz Szwed
TTITLE3=Ciągle w drodze -Paweł Bączkowski
TTITLE4=Mam kilometrów paranoję - Alicja Boncol
TTITLE5=Easy Rider - Zayazd
TTITLE6=O co biega, co jest grane - Colorado Band
TTITLE7=Przed północą będę w domu - Texway
TTITLE8=Pusta droga - Honky Tonk Brothers
TTITLE9=Jadę na Śląsk - Paweł Baczkowski
TTITLE10=Jadę juz - Gang Marcela
TTITLE11=Najprostsza jest droga do domu - Black Horse
TTITLE12=Bar dla takich jak ja - Cezary Makiewicz
TTITLE13=Mój stary Star - Janusz Rewinski
TTITLE14=Ciągnik siodłowy Kamaz Godfather 1 - Tomasz Szwed
TTITLE15=Ja jestem odlotowym kierowcą zawodowym - Mariusz Kalaga
TTITLE16=Mój nowy Star - Janusz Rewinski
TTITLE17=Zmiennik - Tomasz Szwed
TTITLE18=Absolutnie - Wojciech Młynarski
EXTD=YEAR: 2018
EXTT0=
EXTT1=
EXTT2=
EXTT3=
EXTT4=
EXTT5=
EXTT6=
EXTT7=
EXTT8=
EXTT9=
EXTT10=
EXTT11=
EXTT12=
EXTT13=
EXTT14=
EXTT15=
EXTT16=
EXTT17=
EXTT18=
PLAYORDER=
